<svg width="29" height="23" viewBox="0 0 29 23" fill="none" xmlns="http://www.w3.org/2000/svg">
<path d="M26.8466 5.56454L5.63932 21.4382C4.53372 22.2657 2.96734 22.0404 2.1398 20.9348C1.31226 19.8292 1.53757 18.2628 2.64316 17.4353L23.8504 1.56165C24.956 0.734116 26.5224 0.959422 27.35 2.06502C28.1775 3.17061 27.9522 4.737 26.8466 5.56454Z" fill="#394D8B"/>
<path d="M23.9547 21.4589L2.58167 5.80909C1.46743 4.99322 1.22567 3.42929 2.04154 2.31505C2.85741 1.20082 4.42134 0.959057 5.53557 1.77493L26.9086 17.4247C28.0228 18.2406 28.2646 19.8045 27.4487 20.9187C26.6328 22.033 25.0689 22.2747 23.9547 21.4589Z" fill="#394D8B"/>
</svg>
