<svg width="65" height="69" viewBox="0 0 65 69" fill="none" xmlns="http://www.w3.org/2000/svg">
<path fill-rule="evenodd" clip-rule="evenodd" d="M38.1752 1.71093C47.5638 2.84296 56.1654 8.39197 63.4964 17.0803L50.5036 28.0433C44.9843 21.5021 39.9797 19.0516 36.1401 18.5887C32.4647 18.1455 28.4184 19.3456 24.1913 23.2185C21.267 25.8978 18.5363 30.3169 17.7361 34.9584C17.0028 39.2113 17.8315 43.676 22.0332 47.8802C24.5614 50.4099 27.2299 51.4644 29.2853 51.4991C31.0157 51.5283 33.3605 50.8766 35.8836 47.5742C37.3027 45.7167 37.4628 44.6005 37.4768 44.1636C37.4913 43.7085 37.3729 43.113 36.8242 42.2733C35.5156 40.2709 32.7182 38.406 30.5902 37.6103L36.544 21.687C40.8686 23.3039 47.163 27.0181 51.0549 32.9735C53.1064 36.1128 54.6154 40.0909 54.4681 44.7057C54.3203 49.3386 52.5295 53.7886 49.3922 57.8949C43.9783 64.9811 36.7332 68.6272 28.9986 68.4967C21.589 68.3717 14.9176 64.8091 10.0089 59.8975C1.52071 51.4044 -0.592224 41.2078 0.983222 32.0701C2.49167 23.3209 7.31992 15.6199 12.707 10.6841C19.8184 4.16855 28.6223 0.559092 38.1752 1.71093Z" fill="#F06D87"/>
<path d="M63.4964 17.0803L63.8188 17.4624L64.201 17.14L63.8785 16.7579L63.4964 17.0803ZM38.1752 1.71093L38.235 1.21452L38.1752 1.71093ZM50.5036 28.0433L50.1215 28.3657L50.4439 28.7479L50.826 28.4254L50.5036 28.0433ZM36.1401 18.5887L36.2 18.0923L36.2 18.0923L36.1401 18.5887ZM24.1913 23.2185L23.8535 22.8499L23.8535 22.8499L24.1913 23.2185ZM17.7361 34.9584L18.2288 35.0434L18.2288 35.0434L17.7361 34.9584ZM22.0332 47.8802L21.6795 48.2337L21.6795 48.2337L22.0332 47.8802ZM29.2853 51.4991L29.2769 51.999L29.2769 51.999L29.2853 51.4991ZM35.8836 47.5742L36.2809 47.8778L36.2809 47.8778L35.8836 47.5742ZM37.4768 44.1636L37.9765 44.1795L37.9765 44.1795L37.4768 44.1636ZM36.8242 42.2733L37.2427 41.9998L37.2427 41.9998L36.8242 42.2733ZM30.5902 37.6103L30.1219 37.4352L29.9468 37.9035L30.4151 38.0786L30.5902 37.6103ZM36.544 21.687L36.7191 21.2186L36.2508 21.0435L36.0757 21.5119L36.544 21.687ZM51.0549 32.9735L50.6364 33.2471L50.6364 33.2471L51.0549 32.9735ZM54.4681 44.7057L53.9684 44.6898L53.9684 44.6898L54.4681 44.7057ZM49.3922 57.8949L49.7895 58.1985L49.7895 58.1985L49.3922 57.8949ZM28.9986 68.4967L29.007 67.9968L29.007 67.9968L28.9986 68.4967ZM10.0089 59.8975L9.65522 60.251L9.65522 60.251L10.0089 59.8975ZM0.983222 32.0701L0.490492 31.9851L0.983222 32.0701ZM12.707 10.6841L12.3692 10.3155L12.3692 10.3155L12.707 10.6841ZM63.8785 16.7579C56.4945 8.0067 47.7871 2.36627 38.235 1.21452L38.1153 2.20733C47.3404 3.31964 55.8363 8.77724 63.1142 17.4027L63.8785 16.7579ZM50.826 28.4254L63.8188 17.4624L63.1739 16.6982L50.1812 27.6612L50.826 28.4254ZM36.0803 19.0851C39.7572 19.5284 44.6559 21.8883 50.1215 28.3657L50.8857 27.7209C45.3127 21.116 40.2022 18.5749 36.2 18.0923L36.0803 19.0851ZM24.5291 23.5872C28.6704 19.7928 32.5767 18.6626 36.0803 19.0851L36.2 18.0923C32.3528 17.6284 28.1664 18.8983 23.8535 22.8499L24.5291 23.5872ZM18.2288 35.0434C19.0082 30.5225 21.6774 26.1999 24.5291 23.5872L23.8535 22.8499C20.8567 25.5956 18.0644 30.1113 17.2433 34.8735L18.2288 35.0434ZM22.3869 47.5268C18.3106 43.4481 17.5205 39.1517 18.2288 35.0434L17.2433 34.8735C16.4852 39.271 17.3524 43.904 21.6795 48.2337L22.3869 47.5268ZM29.2938 50.9992C27.3947 50.9671 24.8441 49.9854 22.3869 47.5268L21.6795 48.2337C24.2787 50.8343 27.0651 51.9617 29.2769 51.999L29.2938 50.9992ZM35.4863 47.2707C33.0493 50.4604 30.8491 51.0254 29.2938 50.9992L29.2769 51.999C31.1822 52.0312 33.6718 51.2928 36.2809 47.8778L35.4863 47.2707ZM36.977 44.1476C36.967 44.4621 36.8543 45.4801 35.4863 47.2707L36.2809 47.8778C37.7512 45.9533 37.9587 44.739 37.9765 44.1795L36.977 44.1476ZM36.4056 42.5468C36.9091 43.3173 36.9877 43.8134 36.977 44.1476L37.9765 44.1795C37.9949 43.6037 37.8366 42.9086 37.2427 41.9998L36.4056 42.5468ZM30.4151 38.0786C31.4321 38.4589 32.6243 39.1013 33.7216 39.8945C34.8218 40.6897 35.7965 41.6147 36.4056 42.5468L37.2427 41.9998C36.5433 40.9295 35.465 39.9208 34.3074 39.084C33.1468 38.2452 31.8763 37.5574 30.7653 37.142L30.4151 38.0786ZM36.0757 21.5119L30.1219 37.4352L31.0586 37.7854L37.0123 21.8621L36.0757 21.5119ZM51.4735 32.7C47.5055 26.6281 41.108 22.8597 36.7191 21.2186L36.3689 22.1553C40.6291 23.7482 46.8206 27.4081 50.6364 33.2471L51.4735 32.7ZM54.9679 44.7217C55.1191 39.9843 53.569 35.9067 51.4735 32.7L50.6364 33.2471C52.6439 36.319 54.1117 40.1976 53.9684 44.6898L54.9679 44.7217ZM49.7895 58.1985C52.9772 54.0262 54.8161 49.4782 54.9679 44.7217L53.9684 44.6898C53.8245 49.199 52.0818 53.5509 48.9949 57.5914L49.7895 58.1985ZM28.9901 68.9966C36.9019 69.1301 44.291 65.3955 49.7895 58.1985L48.9949 57.5914C43.6657 64.5667 36.5645 68.1243 29.007 67.9968L28.9901 68.9966ZM9.65522 60.251C14.6336 65.2322 21.4227 68.8689 28.9901 68.9966L29.007 67.9968C21.7554 67.8744 15.2016 64.3859 10.3625 59.5441L9.65522 60.251ZM0.490492 31.9851C-1.10965 41.2661 1.0407 51.6314 9.65522 60.251L10.3625 59.5441C2.00071 51.1774 -0.0747954 41.1495 1.47595 32.155L0.490492 31.9851ZM12.3692 10.3155C6.9098 15.3175 2.01979 23.115 0.490492 31.9851L1.47595 32.155C2.96356 23.5267 7.73005 15.9222 13.0448 11.0528L12.3692 10.3155ZM38.235 1.21452C28.5088 0.0417844 19.565 3.72257 12.3692 10.3155L13.0448 11.0528C20.0718 4.61453 28.7358 1.0764 38.1153 2.20733L38.235 1.21452Z" fill="#F06D87"/>
</svg>
