<svg width="32" height="24" viewBox="0 0 32 24" fill="none" xmlns="http://www.w3.org/2000/svg">
<path d="M29.2009 5.83911H2.71088C1.32988 5.83911 0.210876 4.72011 0.210876 3.33911C0.210876 1.95811 1.32988 0.839111 2.71088 0.839111H29.2009C30.5819 0.839111 31.7009 1.95811 31.7009 3.33911C31.7009 4.72011 30.5819 5.83911 29.2009 5.83911Z" fill="#394D8B"/>
<path d="M29.2009 23.8761H2.71088C1.32988 23.8761 0.210876 22.7571 0.210876 21.3761C0.210876 19.9951 1.32988 18.8761 2.71088 18.8761H29.2009C30.5819 18.8761 31.7009 19.9951 31.7009 21.3761C31.7009 22.7571 30.5819 23.8761 29.2009 23.8761Z" fill="#394D8B"/>
<path d="M29.2009 14.9561H2.71088C1.32988 14.9561 0.210876 13.8371 0.210876 12.4561C0.210876 11.0751 1.32988 9.95605 2.71088 9.95605H29.2009C30.5819 9.95605 31.7009 11.0751 31.7009 12.4561C31.7009 13.8371 30.5819 14.9561 29.2009 14.9561Z" fill="#394D8B"/>
</svg>
