<svg width="414" height="290" viewBox="0 0 414 290" fill="none" xmlns="http://www.w3.org/2000/svg">
<rect x="79.639" y="41.48" width="70.87" height="174.216" fill="#A4D2FF"/>
<rect x="87.858" y="51.3311" width="7.876" height="6.222" fill="white"/>
<rect x="99.18" y="51.3311" width="7.876" height="6.222" fill="white"/>
<rect x="109.763" y="51.3311" width="7.876" height="6.222" fill="white"/>
<rect x="120.347" y="51.3311" width="7.876" height="6.222" fill="white"/>
<rect x="131.422" y="51.3311" width="7.876" height="6.222" fill="white"/>
<rect x="88.104" y="59.6271" width="7.876" height="6.222" fill="white"/>
<rect x="99.426" y="59.6271" width="7.876" height="6.222" fill="white"/>
<rect x="110.009" y="59.6271" width="7.876" height="6.222" fill="white"/>
<rect x="120.593" y="59.6271" width="7.876" height="6.222" fill="white"/>
<rect x="131.668" y="59.6271" width="7.876" height="6.222" fill="white"/>
<rect x="88.104" y="68.7881" width="7.876" height="6.222" fill="white"/>
<rect x="99.426" y="68.7881" width="7.876" height="6.222" fill="white"/>
<rect x="110.009" y="68.7881" width="7.876" height="6.222" fill="white"/>
<rect x="120.593" y="68.7881" width="7.876" height="6.222" fill="white"/>
<rect x="131.668" y="68.7881" width="7.876" height="6.222" fill="white"/>
<rect x="88.35" y="77.0841" width="7.876" height="6.222" fill="white"/>
<rect x="99.672" y="77.0841" width="7.876" height="6.222" fill="white"/>
<rect x="110.255" y="77.0841" width="7.876" height="6.222" fill="white"/>
<rect x="120.839" y="77.0841" width="7.876" height="6.222" fill="white"/>
<rect x="131.914" y="77.0841" width="7.876" height="6.222" fill="white"/>
<rect x="87.858" y="85.7251" width="7.876" height="6.222" fill="white"/>
<rect x="99.18" y="85.7251" width="7.876" height="6.222" fill="white"/>
<rect x="109.763" y="85.7251" width="7.876" height="6.222" fill="white"/>
<rect x="120.347" y="85.7251" width="7.876" height="6.222" fill="white"/>
<rect x="131.422" y="85.7251" width="7.876" height="6.222" fill="white"/>
<rect x="88.104" y="94.021" width="7.876" height="6.222" fill="white"/>
<rect x="99.426" y="94.021" width="7.876" height="6.222" fill="white"/>
<rect x="110.009" y="94.021" width="7.876" height="6.222" fill="white"/>
<rect x="120.593" y="94.021" width="7.876" height="6.222" fill="white"/>
<rect x="131.668" y="94.021" width="7.876" height="6.222" fill="white"/>
<rect x="88.104" y="101.626" width="7.876" height="6.222" fill="white"/>
<rect x="99.426" y="101.626" width="7.876" height="6.222" fill="white"/>
<rect x="110.009" y="101.626" width="7.876" height="6.222" fill="white"/>
<rect x="120.593" y="101.626" width="7.876" height="6.222" fill="white"/>
<rect x="131.668" y="101.626" width="7.876" height="6.222" fill="white"/>
<rect x="88.35" y="109.922" width="7.876" height="6.222" fill="white"/>
<rect x="99.672" y="109.922" width="7.876" height="6.222" fill="white"/>
<rect x="110.255" y="109.922" width="7.876" height="6.222" fill="white"/>
<rect x="120.839" y="109.922" width="7.876" height="6.222" fill="white"/>
<rect x="131.914" y="109.922" width="7.876" height="6.222" fill="white"/>
<rect x="88.35" y="118.218" width="7.876" height="6.222" fill="white"/>
<rect x="99.672" y="118.218" width="7.876" height="6.222" fill="white"/>
<rect x="110.255" y="118.218" width="7.876" height="6.222" fill="white"/>
<rect x="120.839" y="118.218" width="7.876" height="6.222" fill="white"/>
<rect x="131.914" y="118.218" width="7.876" height="6.222" fill="white"/>
<rect x="88.597" y="126.514" width="7.876" height="6.222" fill="white"/>
<rect x="99.918" y="126.514" width="7.876" height="6.222" fill="white"/>
<rect x="110.502" y="126.514" width="7.876" height="6.222" fill="white"/>
<rect x="121.085" y="126.514" width="7.876" height="6.222" fill="white"/>
<rect x="132.161" y="126.514" width="7.876" height="6.222" fill="white"/>
<rect x="88.713" y="134.81" width="7.876" height="6.222" fill="white"/>
<rect x="100.035" y="134.81" width="7.876" height="6.222" fill="white"/>
<rect x="110.618" y="134.81" width="7.876" height="6.222" fill="white"/>
<rect x="121.202" y="134.81" width="7.876" height="6.222" fill="white"/>
<rect x="132.277" y="134.81" width="7.876" height="6.222" fill="white"/>
<rect x="88.96" y="143.106" width="7.876" height="6.222" fill="white"/>
<rect x="100.281" y="143.106" width="7.876" height="6.222" fill="white"/>
<rect x="110.865" y="143.106" width="7.876" height="6.222" fill="white"/>
<rect x="121.448" y="143.106" width="7.876" height="6.222" fill="white"/>
<rect x="132.523" y="143.106" width="7.876" height="6.222" fill="white"/>
<rect x="88.96" y="151.402" width="7.876" height="6.222" fill="white"/>
<rect x="100.281" y="151.402" width="7.876" height="6.222" fill="white"/>
<rect x="110.865" y="151.402" width="7.876" height="6.222" fill="white"/>
<rect x="121.448" y="151.402" width="7.876" height="6.222" fill="white"/>
<rect x="132.523" y="151.402" width="7.876" height="6.222" fill="white"/>
<rect x="89.206" y="159.698" width="7.876" height="6.222" fill="white"/>
<rect x="100.527" y="159.698" width="7.876" height="6.222" fill="white"/>
<rect x="111.111" y="159.698" width="7.876" height="6.222" fill="white"/>
<rect x="121.694" y="159.698" width="7.876" height="6.222" fill="white"/>
<rect x="132.77" y="159.698" width="7.876" height="6.222" fill="white"/>
<rect x="202.566" y="41.48" width="70.87" height="174.216" fill="#ECF3FE"/>
<rect x="210.785" y="51.3311" width="7.876" height="6.222" fill="white"/>
<rect x="222.107" y="51.3311" width="7.876" height="6.222" fill="white"/>
<rect x="232.69" y="51.3311" width="7.876" height="6.222" fill="white"/>
<rect x="243.274" y="51.3311" width="7.876" height="6.222" fill="white"/>
<rect x="254.349" y="51.3311" width="7.876" height="6.222" fill="white"/>
<rect x="211.031" y="59.6271" width="7.876" height="6.222" fill="white"/>
<rect x="222.353" y="59.6271" width="7.876" height="6.222" fill="white"/>
<rect x="232.936" y="59.6271" width="7.876" height="6.222" fill="white"/>
<rect x="243.52" y="59.6271" width="7.876" height="6.222" fill="white"/>
<rect x="254.595" y="59.6271" width="7.876" height="6.222" fill="white"/>
<rect x="211.031" y="68.7881" width="7.876" height="6.222" fill="white"/>
<rect x="222.353" y="68.7881" width="7.876" height="6.222" fill="white"/>
<rect x="232.936" y="68.7881" width="7.876" height="6.222" fill="white"/>
<rect x="243.52" y="68.7881" width="7.876" height="6.222" fill="white"/>
<rect x="254.595" y="68.7881" width="7.876" height="6.222" fill="white"/>
<rect x="211.277" y="77.0841" width="7.876" height="6.222" fill="white"/>
<rect x="222.599" y="77.0841" width="7.876" height="6.222" fill="white"/>
<rect x="233.183" y="77.0841" width="7.876" height="6.222" fill="white"/>
<rect x="243.766" y="77.0841" width="7.876" height="6.222" fill="white"/>
<rect x="254.841" y="77.0841" width="7.876" height="6.222" fill="white"/>
<rect x="210.785" y="85.7251" width="7.876" height="6.222" fill="white"/>
<rect x="222.107" y="85.7251" width="7.876" height="6.222" fill="white"/>
<rect x="232.69" y="85.7251" width="7.876" height="6.222" fill="white"/>
<rect x="243.274" y="85.7251" width="7.876" height="6.222" fill="white"/>
<rect x="254.349" y="85.7251" width="7.876" height="6.222" fill="white"/>
<rect x="211.031" y="94.021" width="7.876" height="6.222" fill="white"/>
<rect x="222.353" y="94.021" width="7.876" height="6.222" fill="white"/>
<rect x="232.936" y="94.021" width="7.876" height="6.222" fill="white"/>
<rect x="243.52" y="94.021" width="7.876" height="6.222" fill="white"/>
<rect x="254.595" y="94.021" width="7.876" height="6.222" fill="white"/>
<rect x="211.031" y="101.626" width="7.876" height="6.222" fill="white"/>
<rect x="222.353" y="101.626" width="7.876" height="6.222" fill="white"/>
<rect x="232.936" y="101.626" width="7.876" height="6.222" fill="white"/>
<rect x="243.52" y="101.626" width="7.876" height="6.222" fill="white"/>
<rect x="254.595" y="101.626" width="7.876" height="6.222" fill="white"/>
<rect x="211.277" y="109.922" width="7.876" height="6.222" fill="white"/>
<rect x="222.599" y="109.922" width="7.876" height="6.222" fill="white"/>
<rect x="233.183" y="109.922" width="7.876" height="6.222" fill="white"/>
<rect x="243.766" y="109.922" width="7.876" height="6.222" fill="white"/>
<rect x="254.841" y="109.922" width="7.876" height="6.222" fill="white"/>
<rect x="211.277" y="118.218" width="7.876" height="6.222" fill="white"/>
<rect x="222.599" y="118.218" width="7.876" height="6.222" fill="white"/>
<rect x="233.183" y="118.218" width="7.876" height="6.222" fill="white"/>
<rect x="243.766" y="118.218" width="7.876" height="6.222" fill="white"/>
<rect x="254.841" y="118.218" width="7.876" height="6.222" fill="white"/>
<rect x="211.524" y="126.514" width="7.876" height="6.222" fill="white"/>
<rect x="222.845" y="126.514" width="7.876" height="6.222" fill="white"/>
<rect x="233.429" y="126.514" width="7.876" height="6.222" fill="white"/>
<rect x="244.012" y="126.514" width="7.876" height="6.222" fill="white"/>
<rect x="255.088" y="126.514" width="7.876" height="6.222" fill="white"/>
<rect x="211.64" y="134.81" width="7.876" height="6.222" fill="white"/>
<rect x="222.962" y="134.81" width="7.876" height="6.222" fill="white"/>
<rect x="233.545" y="134.81" width="7.876" height="6.222" fill="white"/>
<rect x="244.129" y="134.81" width="7.876" height="6.222" fill="white"/>
<rect x="255.204" y="134.81" width="7.876" height="6.222" fill="white"/>
<rect x="211.887" y="143.106" width="7.876" height="6.222" fill="white"/>
<rect x="223.208" y="143.106" width="7.876" height="6.222" fill="white"/>
<rect x="233.792" y="143.106" width="7.876" height="6.222" fill="white"/>
<rect x="244.375" y="143.106" width="7.876" height="6.222" fill="white"/>
<rect x="255.451" y="143.106" width="7.876" height="6.222" fill="white"/>
<rect x="211.887" y="151.402" width="7.876" height="6.222" fill="white"/>
<rect x="223.208" y="151.402" width="7.876" height="6.222" fill="white"/>
<rect x="233.792" y="151.402" width="7.876" height="6.222" fill="white"/>
<rect x="244.375" y="151.402" width="7.876" height="6.222" fill="white"/>
<rect x="255.451" y="151.402" width="7.876" height="6.222" fill="white"/>
<rect x="212.133" y="159.698" width="7.876" height="6.222" fill="white"/>
<rect x="223.454" y="159.698" width="7.876" height="6.222" fill="white"/>
<rect x="234.038" y="159.698" width="7.876" height="6.222" fill="white"/>
<rect x="244.621" y="159.698" width="7.876" height="6.222" fill="white"/>
<rect x="255.697" y="159.698" width="7.876" height="6.222" fill="white"/>
<path d="M200.063 214.78L153.851 214.884L153.393 33.755L176.026 27.309L199.605 33.65L200.063 214.78Z" fill="#EBF0FF"/>
<rect x="157.45" y="38.369" width="5.845" height="6.222" fill="white"/>
<rect x="165.852" y="38.369" width="5.845" height="6.222" fill="white"/>
<rect x="173.706" y="38.369" width="5.845" height="6.222" fill="white"/>
<rect x="181.56" y="38.369" width="5.845" height="6.222" fill="white"/>
<rect x="189.78" y="38.369" width="5.845" height="6.222" fill="white"/>
<rect x="157.633" y="46.665" width="5.845" height="6.222" fill="white"/>
<rect x="166.035" y="46.665" width="5.845" height="6.222" fill="white"/>
<rect x="173.889" y="46.665" width="5.845" height="6.222" fill="white"/>
<rect x="181.743" y="46.665" width="5.845" height="6.222" fill="white"/>
<rect x="189.963" y="46.665" width="5.845" height="6.222" fill="white"/>
<rect x="157.633" y="55.8251" width="5.845" height="6.222" fill="white"/>
<rect x="166.035" y="55.8251" width="5.845" height="6.222" fill="white"/>
<rect x="173.889" y="55.8251" width="5.845" height="6.222" fill="white"/>
<rect x="181.743" y="55.8251" width="5.845" height="6.222" fill="white"/>
<rect x="189.963" y="55.8251" width="5.845" height="6.222" fill="white"/>
<rect x="157.815" y="64.1211" width="5.845" height="6.222" fill="white"/>
<rect x="166.217" y="64.1211" width="5.845" height="6.222" fill="white"/>
<rect x="174.072" y="64.1211" width="5.845" height="6.222" fill="white"/>
<rect x="181.926" y="64.1211" width="5.845" height="6.222" fill="white"/>
<rect x="190.145" y="64.1211" width="5.845" height="6.222" fill="white"/>
<rect x="157.45" y="72.7631" width="5.845" height="6.222" fill="white"/>
<rect x="165.852" y="72.7631" width="5.845" height="6.222" fill="white"/>
<rect x="173.706" y="72.7631" width="5.845" height="6.222" fill="white"/>
<rect x="181.56" y="72.7631" width="5.845" height="6.222" fill="white"/>
<rect x="189.78" y="72.7631" width="5.845" height="6.222" fill="white"/>
<rect x="157.633" y="81.0591" width="5.845" height="6.222" fill="white"/>
<rect x="166.035" y="81.0591" width="5.845" height="6.222" fill="white"/>
<rect x="173.889" y="81.0591" width="5.845" height="6.222" fill="white"/>
<rect x="181.743" y="81.0591" width="5.845" height="6.222" fill="white"/>
<rect x="189.963" y="81.0591" width="5.845" height="6.222" fill="white"/>
<rect x="157.633" y="88.6641" width="5.845" height="6.222" fill="white"/>
<rect x="166.035" y="88.6641" width="5.845" height="6.222" fill="white"/>
<rect x="173.889" y="88.6641" width="5.845" height="6.222" fill="white"/>
<rect x="181.743" y="88.6641" width="5.845" height="6.222" fill="white"/>
<rect x="189.963" y="88.6641" width="5.845" height="6.222" fill="white"/>
<rect x="157.815" y="96.96" width="5.845" height="6.222" fill="white"/>
<rect x="166.217" y="96.96" width="5.845" height="6.222" fill="white"/>
<rect x="174.072" y="96.96" width="5.845" height="6.222" fill="white"/>
<rect x="181.926" y="96.96" width="5.845" height="6.222" fill="white"/>
<rect x="190.145" y="96.96" width="5.845" height="6.222" fill="white"/>
<rect x="157.802" y="105.296" width="5.84502" height="6.22202" transform="rotate(-0.13178 157.802 105.296)" fill="white"/>
<rect x="166.204" y="105.277" width="5.84502" height="6.22202" transform="rotate(-0.13178 166.204 105.277)" fill="white"/>
<rect x="174.058" y="105.259" width="5.84502" height="6.22202" transform="rotate(-0.13178 174.058 105.259)" fill="white"/>
<rect x="181.913" y="105.24" width="5.84502" height="6.22202" transform="rotate(-0.13178 181.913 105.24)" fill="white"/>
<rect x="190.132" y="105.222" width="5.84502" height="6.22202" transform="rotate(-0.13178 190.132 105.222)" fill="white"/>
<rect x="158.006" y="113.591" width="5.84502" height="6.22202" transform="rotate(-0.13178 158.006 113.591)" fill="white"/>
<rect x="166.408" y="113.572" width="5.84502" height="6.22202" transform="rotate(-0.13178 166.408 113.572)" fill="white"/>
<rect x="174.262" y="113.554" width="5.84502" height="6.22202" transform="rotate(-0.13178 174.262 113.554)" fill="white"/>
<rect x="182.116" y="113.536" width="5.84502" height="6.22202" transform="rotate(-0.13178 182.116 113.536)" fill="white"/>
<rect x="190.336" y="113.517" width="5.84502" height="6.22202" transform="rotate(-0.13178 190.336 113.517)" fill="white"/>
<path d="M322.625 214.952L276.413 215.057L275.955 33.9281L298.588 27.4821L322.166 33.8231L322.625 214.952Z" fill="#8DBFFB"/>
<rect x="280.012" y="38.542" width="5.845" height="6.222" fill="white"/>
<rect x="288.414" y="38.542" width="5.845" height="6.222" fill="white"/>
<rect x="296.268" y="38.542" width="5.845" height="6.222" fill="white"/>
<rect x="304.122" y="38.542" width="5.845" height="6.222" fill="white"/>
<rect x="312.342" y="38.542" width="5.845" height="6.222" fill="white"/>
<rect x="280.194" y="46.838" width="5.845" height="6.222" fill="white"/>
<rect x="288.596" y="46.838" width="5.845" height="6.222" fill="white"/>
<rect x="296.451" y="46.838" width="5.845" height="6.222" fill="white"/>
<rect x="304.305" y="46.838" width="5.845" height="6.222" fill="white"/>
<rect x="312.524" y="46.838" width="5.845" height="6.222" fill="white"/>
<rect x="280.194" y="55.998" width="5.845" height="6.222" fill="white"/>
<rect x="288.596" y="55.998" width="5.845" height="6.222" fill="white"/>
<rect x="296.451" y="55.998" width="5.845" height="6.222" fill="white"/>
<rect x="304.305" y="55.998" width="5.845" height="6.222" fill="white"/>
<rect x="312.524" y="55.998" width="5.845" height="6.222" fill="white"/>
<rect x="280.377" y="64.2941" width="5.845" height="6.222" fill="white"/>
<rect x="288.779" y="64.2941" width="5.845" height="6.222" fill="white"/>
<rect x="296.633" y="64.2941" width="5.845" height="6.222" fill="white"/>
<rect x="304.487" y="64.2941" width="5.845" height="6.222" fill="white"/>
<rect x="312.707" y="64.2941" width="5.845" height="6.222" fill="white"/>
<rect x="280.012" y="72.936" width="5.845" height="6.222" fill="white"/>
<rect x="288.414" y="72.936" width="5.845" height="6.222" fill="white"/>
<rect x="296.268" y="72.936" width="5.845" height="6.222" fill="white"/>
<rect x="304.122" y="72.936" width="5.845" height="6.222" fill="white"/>
<rect x="312.342" y="72.936" width="5.845" height="6.222" fill="white"/>
<rect x="280.194" y="81.2321" width="5.845" height="6.222" fill="white"/>
<rect x="288.596" y="81.2321" width="5.845" height="6.222" fill="white"/>
<rect x="296.451" y="81.2321" width="5.845" height="6.222" fill="white"/>
<rect x="304.305" y="81.2321" width="5.845" height="6.222" fill="white"/>
<rect x="312.524" y="81.2321" width="5.845" height="6.222" fill="white"/>
<rect x="280.194" y="88.8359" width="5.845" height="6.222" fill="white"/>
<rect x="288.596" y="88.8359" width="5.845" height="6.222" fill="white"/>
<rect x="296.451" y="88.8359" width="5.845" height="6.222" fill="white"/>
<rect x="304.305" y="88.8359" width="5.845" height="6.222" fill="white"/>
<rect x="312.524" y="88.8359" width="5.845" height="6.222" fill="white"/>
<rect x="280.377" y="97.1318" width="5.845" height="6.222" fill="white"/>
<rect x="288.779" y="97.1318" width="5.845" height="6.222" fill="white"/>
<rect x="296.633" y="97.1318" width="5.845" height="6.222" fill="white"/>
<rect x="304.487" y="97.1318" width="5.845" height="6.222" fill="white"/>
<rect x="312.707" y="97.1318" width="5.845" height="6.222" fill="white"/>
<rect x="280.364" y="105.465" width="5.84502" height="6.22202" transform="rotate(-0.13178 280.364 105.465)" fill="white"/>
<rect x="288.766" y="105.446" width="5.84502" height="6.22202" transform="rotate(-0.13178 288.766 105.446)" fill="white"/>
<rect x="296.62" y="105.427" width="5.84502" height="6.22202" transform="rotate(-0.13178 296.62 105.427)" fill="white"/>
<rect x="304.474" y="105.409" width="5.84502" height="6.22202" transform="rotate(-0.13178 304.474 105.409)" fill="white"/>
<rect x="312.694" y="105.39" width="5.84502" height="6.22202" transform="rotate(-0.13178 312.694 105.39)" fill="white"/>
<rect x="280.567" y="113.76" width="5.84502" height="6.22202" transform="rotate(-0.13178 280.567 113.76)" fill="white"/>
<rect x="288.97" y="113.74" width="5.84502" height="6.22202" transform="rotate(-0.13178 288.97 113.74)" fill="white"/>
<rect x="296.824" y="113.722" width="5.84502" height="6.22202" transform="rotate(-0.13178 296.824 113.722)" fill="white"/>
<rect x="304.678" y="113.705" width="5.84502" height="6.22202" transform="rotate(-0.13178 304.678 113.705)" fill="white"/>
<rect x="312.898" y="113.686" width="5.84502" height="6.22202" transform="rotate(-0.13178 312.898 113.686)" fill="white"/>
<rect x="173.889" width="5.48" height="33.703" fill="#EBF0FF"/>
<rect x="325.675" y="12.1851" width="70.87" height="199.019" fill="#ECF3FE"/>
<rect x="333.895" y="23.439" width="7.876" height="7.108" fill="white"/>
<rect x="345.217" y="23.439" width="7.876" height="7.108" fill="white"/>
<rect x="355.8" y="23.439" width="7.876" height="7.108" fill="white"/>
<rect x="366.383" y="23.439" width="7.876" height="7.108" fill="white"/>
<rect x="377.459" y="23.439" width="7.876" height="7.108" fill="white"/>
<rect x="334.141" y="32.916" width="7.876" height="7.108" fill="white"/>
<rect x="345.463" y="32.916" width="7.876" height="7.108" fill="white"/>
<rect x="356.046" y="32.916" width="7.876" height="7.108" fill="white"/>
<rect x="366.629" y="32.916" width="7.876" height="7.108" fill="white"/>
<rect x="377.705" y="32.916" width="7.876" height="7.108" fill="white"/>
<rect x="334.141" y="43.38" width="7.876" height="7.108" fill="white"/>
<rect x="345.463" y="43.38" width="7.876" height="7.108" fill="white"/>
<rect x="356.046" y="43.38" width="7.876" height="7.108" fill="white"/>
<rect x="366.629" y="43.38" width="7.876" height="7.108" fill="white"/>
<rect x="377.705" y="43.38" width="7.876" height="7.108" fill="white"/>
<rect x="334.387" y="52.8571" width="7.876" height="7.108" fill="white"/>
<rect x="345.709" y="52.8571" width="7.876" height="7.108" fill="white"/>
<rect x="356.292" y="52.8571" width="7.876" height="7.108" fill="white"/>
<rect x="366.876" y="52.8571" width="7.876" height="7.108" fill="white"/>
<rect x="377.951" y="52.8571" width="7.876" height="7.108" fill="white"/>
<rect x="333.895" y="62.729" width="7.876" height="7.108" fill="white"/>
<rect x="345.217" y="62.729" width="7.876" height="7.108" fill="white"/>
<rect x="355.8" y="62.729" width="7.876" height="7.108" fill="white"/>
<rect x="366.383" y="62.729" width="7.876" height="7.108" fill="white"/>
<rect x="377.459" y="62.729" width="7.876" height="7.108" fill="white"/>
<rect x="334.141" y="72.2061" width="7.876" height="7.108" fill="white"/>
<rect x="345.463" y="72.2061" width="7.876" height="7.108" fill="white"/>
<rect x="356.046" y="72.2061" width="7.876" height="7.108" fill="white"/>
<rect x="366.629" y="72.2061" width="7.876" height="7.108" fill="white"/>
<rect x="377.705" y="72.2061" width="7.876" height="7.108" fill="white"/>
<rect x="334.141" y="80.8939" width="7.876" height="7.108" fill="white"/>
<rect x="345.463" y="80.8939" width="7.876" height="7.108" fill="white"/>
<rect x="356.046" y="80.8939" width="7.876" height="7.108" fill="white"/>
<rect x="366.629" y="80.8939" width="7.876" height="7.108" fill="white"/>
<rect x="377.705" y="80.8939" width="7.876" height="7.108" fill="white"/>
<rect x="334.387" y="90.371" width="7.876" height="7.108" fill="white"/>
<rect x="345.709" y="90.371" width="7.876" height="7.108" fill="white"/>
<rect x="356.292" y="90.371" width="7.876" height="7.108" fill="white"/>
<rect x="366.876" y="90.371" width="7.876" height="7.108" fill="white"/>
<rect x="377.951" y="90.371" width="7.876" height="7.108" fill="white"/>
<rect x="334.387" y="99.8479" width="7.876" height="7.108" fill="white"/>
<rect x="345.709" y="99.8479" width="7.876" height="7.108" fill="white"/>
<rect x="356.292" y="99.8479" width="7.876" height="7.108" fill="white"/>
<rect x="366.876" y="99.8479" width="7.876" height="7.108" fill="white"/>
<rect x="377.951" y="99.8479" width="7.876" height="7.108" fill="white"/>
<rect x="334.633" y="109.325" width="7.876" height="7.108" fill="white"/>
<rect x="345.955" y="109.325" width="7.876" height="7.108" fill="white"/>
<rect x="356.538" y="109.325" width="7.876" height="7.108" fill="white"/>
<rect x="367.122" y="109.325" width="7.876" height="7.108" fill="white"/>
<rect x="378.197" y="109.325" width="7.876" height="7.108" fill="white"/>
<rect x="334.75" y="118.802" width="7.876" height="7.108" fill="white"/>
<rect x="346.072" y="118.802" width="7.876" height="7.108" fill="white"/>
<rect x="356.655" y="118.802" width="7.876" height="7.108" fill="white"/>
<rect x="367.239" y="118.802" width="7.876" height="7.108" fill="white"/>
<rect x="378.314" y="118.802" width="7.876" height="7.108" fill="white"/>
<rect x="334.996" y="128.279" width="7.876" height="7.108" fill="white"/>
<rect x="346.318" y="128.279" width="7.876" height="7.108" fill="white"/>
<rect x="356.901" y="128.279" width="7.876" height="7.108" fill="white"/>
<rect x="367.485" y="128.279" width="7.876" height="7.108" fill="white"/>
<rect x="378.56" y="128.279" width="7.876" height="7.108" fill="white"/>
<rect x="334.996" y="137.756" width="7.876" height="7.108" fill="white"/>
<rect x="346.318" y="137.756" width="7.876" height="7.108" fill="white"/>
<rect x="356.901" y="137.756" width="7.876" height="7.108" fill="white"/>
<rect x="367.485" y="137.756" width="7.876" height="7.108" fill="white"/>
<rect x="378.56" y="137.756" width="7.876" height="7.108" fill="white"/>
<rect x="335.242" y="147.233" width="7.876" height="7.108" fill="white"/>
<rect x="346.564" y="147.233" width="7.876" height="7.108" fill="white"/>
<rect x="357.147" y="147.233" width="7.876" height="7.108" fill="white"/>
<rect x="367.731" y="147.233" width="7.876" height="7.108" fill="white"/>
<rect x="378.806" y="147.233" width="7.876" height="7.108" fill="white"/>
<path d="M76.953 216.508L30.742 216.613L30.283 35.483L52.916 29.037L76.495 35.379L76.953 216.508Z" fill="#8DBFFB"/>
<rect x="34.523" y="43.09" width="5.845" height="6.222" fill="white"/>
<rect x="42.925" y="43.09" width="5.845" height="6.222" fill="white"/>
<rect x="50.779" y="43.09" width="5.845" height="6.222" fill="white"/>
<rect x="58.633" y="43.09" width="5.845" height="6.222" fill="white"/>
<rect x="66.853" y="43.09" width="5.845" height="6.222" fill="white"/>
<rect x="34.705" y="51.386" width="5.845" height="6.222" fill="white"/>
<rect x="43.108" y="51.386" width="5.845" height="6.222" fill="white"/>
<rect x="50.962" y="51.386" width="5.845" height="6.222" fill="white"/>
<rect x="58.816" y="51.386" width="5.845" height="6.222" fill="white"/>
<rect x="67.035" y="51.386" width="5.845" height="6.222" fill="white"/>
<rect x="34.523" y="60.4969" width="5.845" height="7.696" fill="white"/>
<rect x="42.925" y="60.4969" width="5.845" height="7.696" fill="white"/>
<rect x="50.779" y="60.4969" width="5.845" height="7.696" fill="white"/>
<rect x="58.633" y="60.4969" width="5.845" height="7.696" fill="white"/>
<rect x="66.853" y="60.4969" width="5.845" height="7.696" fill="white"/>
<rect x="34.705" y="70.757" width="5.845" height="7.696" fill="white"/>
<rect x="43.108" y="70.757" width="5.845" height="7.696" fill="white"/>
<rect x="50.962" y="70.757" width="5.845" height="7.696" fill="white"/>
<rect x="58.816" y="70.757" width="5.845" height="7.696" fill="white"/>
<rect x="67.035" y="70.757" width="5.845" height="7.696" fill="white"/>
<rect x="34.6601" y="81.0741" width="5.84502" height="7.69603" transform="rotate(-0.160428 34.6601 81.0741)" fill="white"/>
<rect x="43.0622" y="81.0511" width="5.84502" height="7.69603" transform="rotate(-0.160428 43.0622 81.0511)" fill="white"/>
<rect x="50.9172" y="81.0292" width="5.84502" height="7.69603" transform="rotate(-0.160428 50.9172 81.0292)" fill="white"/>
<rect x="58.7713" y="81.0072" width="5.84502" height="7.69603" transform="rotate(-0.160428 58.7713 81.0072)" fill="white"/>
<rect x="66.9903" y="80.9841" width="5.84502" height="7.69603" transform="rotate(-0.160428 66.9903 80.9841)" fill="white"/>
<rect x="34.8641" y="91.3351" width="5.84502" height="7.69603" transform="rotate(-0.160428 34.8641 91.3351)" fill="white"/>
<rect x="43.2661" y="91.3112" width="5.84502" height="7.69603" transform="rotate(-0.160428 43.2661 91.3112)" fill="white"/>
<rect x="51.1201" y="91.2892" width="5.84502" height="7.69603" transform="rotate(-0.160428 51.1201 91.2892)" fill="white"/>
<rect x="58.9742" y="91.2672" width="5.84502" height="7.69603" transform="rotate(-0.160428 58.9742 91.2672)" fill="white"/>
<rect x="67.1942" y="91.2441" width="5.84502" height="7.69603" transform="rotate(-0.160428 67.1942 91.2441)" fill="white"/>
<rect x="50.779" y="1.72803" width="5.48" height="33.703" fill="#8DBFFB"/>
<path d="M68.897 65.296H4.993C6.358 57.98 11.714 52.519 18.112 52.519C19.66 52.519 21.149 52.838 22.532 53.429C25.908 49.054 30.694 46.324 36.002 46.324C42.378 46.324 48.002 50.262 51.333 56.257C52.904 55.469 54.623 55.035 56.426 55.035C62.067 55.035 66.897 59.279 68.897 65.296Z" fill="#8DBFFB"/>
<path opacity="0.18" d="M314.556 23.4229H258.298C259.499 16.9819 264.215 12.1749 269.847 12.1749C271.21 12.1749 272.52 12.4559 273.739 12.9759C276.711 9.12395 280.924 6.72095 285.598 6.72095C291.211 6.72095 296.162 10.1879 299.094 15.4659C300.477 14.7719 301.99 14.3909 303.578 14.3909C308.543 14.3909 312.795 18.1259 314.556 23.4229Z" fill="#3B7CFF"/>
<path d="M244.13 54.776L189.352 55.064C190.492 48.787 195.062 44.081 200.546 44.052C201.873 44.045 203.15 44.312 204.339 44.812C207.215 41.046 211.307 38.685 215.857 38.661C221.322 38.632 226.159 41.982 229.038 47.107C230.381 46.425 231.853 46.045 233.399 46.037C238.233 46.011 242.391 49.627 244.13 54.776Z" fill="#8DBFFB"/>
<path opacity="0.18" d="M142.148 36.949L87.37 37.237C88.511 30.96 93.08 26.254 98.564 26.225C99.891 26.218 101.168 26.485 102.357 26.985C105.233 23.219 109.325 20.858 113.875 20.834C119.34 20.805 124.177 24.155 127.056 29.28C128.399 28.598 129.871 28.218 131.417 28.21C136.252 28.185 140.409 31.8 142.148 36.949Z" fill="#3B7CFF"/>
<path d="M419.635 79.029L377.424 79.251C378.303 74.414 381.824 70.788 386.05 70.765C387.073 70.76 388.057 70.965 388.973 71.351C391.189 68.449 394.342 66.63 397.849 66.611C402.06 66.589 405.787 69.17 408.006 73.119C409.041 72.593 410.175 72.301 411.367 72.294C415.092 72.275 418.296 75.061 419.635 79.029Z" fill="#8DBFFB"/>
<path opacity="0.12" d="M398.009 245.865C397.067 248.924 395.473 251.652 393.413 253.848C390.146 257.318 385.711 259.455 380.82 259.46H380.666L376.624 259.455L319.327 259.355L240.311 259.215L194.06 258.185L168.475 258.14C166.148 258.136 163.999 257.28 162.259 255.824C159.675 253.662 158 250.191 158 246.277V245.865H177.729C181.031 232.453 192.885 222.499 206.956 222.499C221.027 222.499 232.878 232.453 236.184 245.865H317.825C321.127 232.453 332.981 222.499 347.052 222.499C361.124 222.499 372.977 232.453 376.28 245.865H398.009V245.865Z" fill="black"/>
<path d="M234.623 254.535C234.623 265.573 227.826 275.03 218.188 278.939C215.135 280.181 211.796 280.863 208.295 280.863C193.752 280.863 181.963 269.074 181.963 254.535C181.963 242.341 190.254 232.082 201.504 229.09C203.67 228.51 205.946 228.204 208.294 228.204C222.834 228.205 234.623 239.993 234.623 254.535Z" fill="#394D8B"/>
<path d="M209.143 265.446C215.33 265.446 220.346 260.43 220.346 254.242C220.346 248.055 215.33 243.039 209.143 243.039C202.955 243.039 197.939 248.055 197.939 254.242C197.939 260.43 202.955 265.446 209.143 265.446Z" fill="white"/>
<path d="M249.289 231.627L615.588 231.627V264.435H249.289V231.627Z" fill="#394D8B"/>
<path d="M169.411 214.986V244.234H179.133C183.184 228.798 196.902 221.075 213.915 221.928C236.599 223.065 243.135 249.314 243.135 261.296H250.426V236.11H299.845V244.234L421.598 241.327C428.079 237.264 419.747 106.117 419.747 106.117C354.287 105.467 290.393 130.22 266.629 142.677L230.172 197.924C195.174 198.574 175.082 209.57 169.411 214.986Z" fill="#FF748F" stroke="#FF748F" stroke-width="5"/>
<path d="M423.31 185.412C275.535 233.922 184.816 207.093 184.816 207.093L176.258 211.087L168.27 216.223V233.91V243.759H177.992C182.042 228.322 195.76 220.599 212.774 221.452C235.458 222.589 241.993 248.839 241.993 260.82H249.285V235.634H298.704V243.759L422.168 241.327L423.31 235.634V216.793V185.412Z" fill="url(#paint0_linear)"/>
<path opacity="0.15" d="M298.64 161.897L298.365 183.363C277.642 189.611 231.051 201.973 183.105 203.23C185.968 201.315 189.198 199.993 192.668 199.428L230.266 197.224L249.356 163.605C251.233 160.301 254.551 158.061 258.321 157.594C259.077 157.5 259.838 157.455 260.6 157.455H294.199C296.653 157.455 298.64 159.444 298.64 161.897Z" fill="white"/>
<path d="M292.435 166.029L292.344 169.181L292.212 173.8L291.649 193.501C291.614 194.734 290.605 195.713 289.375 195.713H245.061C244.066 195.713 243.347 194.887 243.363 193.987C243.367 193.739 243.425 193.485 243.551 193.241L246.67 187.181L250.483 179.761L257.659 165.814C258.496 164.186 260.186 163.177 262.016 163.216L278.627 163.183L289.636 163.16C290.29 163.158 290.889 163.382 291.364 163.756C292.037 164.28 292.46 165.107 292.435 166.029Z" fill="#242424"/>
<path opacity="0.28" d="M290.94 186.554C290.94 195.112 290.37 193.971 279.529 193.971C266.406 193.971 256.136 193.971 246.437 193.971C249.289 187.695 255.565 176.284 260.701 166.013C263.553 164.302 267.253 165.458 270.4 171.719C274.814 180.502 271 187.985 281.241 182.854C290.94 177.995 290.94 181.989 290.94 186.554Z" fill="white"/>
<path d="M94.841 204.927C96.095 203.593 99.098 203.534 99.973 204.003C100.848 204.471 98.494 204.832 98.494 204.832C98.494 204.832 102.024 204.86 101.49 206.929C101.068 208.564 96.637 207.124 96.637 207.124L96.377 207.351L94.841 204.927Z" fill="#F9DAD2"/>
<path d="M83.108 209.972C83.108 209.972 84.959 216.195 87.624 216.011C89.491 215.882 93.181 211.836 95.224 209.427C96.096 208.398 96.666 207.669 96.666 207.669L94.755 204.83L88.539 209.035C88.539 209.035 88.018 202.487 87.362 199.671C86.706 196.855 83.52 195.099 83.52 195.099L83.108 209.972Z" fill="#394D8B"/>
<path d="M54.704 205.141C53.45 203.807 50.447 203.748 49.572 204.217C48.697 204.685 51.051 205.046 51.051 205.046C51.051 205.046 47.521 205.074 48.055 207.143C48.477 208.778 52.908 207.338 52.908 207.338L53.168 207.565L54.704 205.141Z" fill="#F9DAD2"/>
<path d="M67.201 209.675C67.201 209.675 64.586 216.409 61.921 216.225C60.054 216.096 56.364 212.05 54.321 209.641C53.449 208.612 52.879 207.883 52.879 207.883L54.79 205.044L61.006 209.249C61.006 209.249 61.527 202.701 62.183 199.885C62.839 197.069 66.025 195.313 66.025 195.313L67.201 209.675Z" fill="#394D8B"/>
<path d="M82.333 215.039L86.804 276.851L82.31 277.29L73.223 222.75L68.198 216.423L82.333 215.039Z" fill="#394D8B"/>
<path d="M66.88 215.026L63.975 276.995L68.491 277.001L77.184 215.061L66.88 215.026Z" fill="#394D8B"/>
<path opacity="0.16" d="M74.801 232.259L75.302 226.689L78.189 225.265L76.137 227.684L74.801 232.259Z" fill="black"/>
<path d="M86.94 272.856L87.137 277.628L91.178 278.243C91.637 278.313 92.049 278.516 92.376 278.812C92.776 279.174 93.046 279.675 93.115 280.239L82.838 281.136L81.525 273.515L86.94 272.856Z" fill="#7AC0FC"/>
<path d="M63.829 272.893L63.808 277.649L60.128 278.662C59.678 278.776 59.287 279.018 58.99 279.344C58.627 279.743 58.309 280.379 58.295 280.947L68.646 281.09L69.283 273.029L63.829 272.893Z" fill="#7AC0FC"/>
<path d="M72.557 191.966L77.359 191.973L84.214 195.494L82.689 220.055L66.688 220.049L66.638 207.543L65.693 195.42L72.557 191.966Z" fill="#7AC0FC"/>
<path d="M77.434 191.973C77.434 191.973 77.428 191.987 77.419 192.014C77.411 192.028 77.403 192.043 77.396 192.062C77.376 192.102 77.326 192.192 77.252 192.318C76.221 194.09 73.664 194.095 72.628 192.325C72.528 192.153 72.462 192.037 72.447 192.003C72.435 191.98 72.431 191.966 72.431 191.966L72.768 189.629L72.819 189.273L76.86 189.279L77.27 191.2L77.419 191.9L77.434 191.973Z" fill="#F9DAD2"/>
<path opacity="0.22" d="M77.27 191.2C76.912 191.281 76.521 191.33 76.093 191.342C74.527 191.385 73.475 190.659 72.768 189.63L72.819 189.274L76.86 189.28L77.27 191.2Z" fill="black"/>
<path d="M74.862 190.543C81.161 190.37 79.557 182.14 79.557 182.14C79.557 182.14 78.497 179.411 74.757 179.514C71.405 179.606 70.113 182.596 70.113 182.596C70.113 182.596 69.74 190.683 74.862 190.543Z" fill="#F9DAD2"/>
<path d="M72.348 183.127C72.348 183.127 72.144 185.549 71.75 185.548C71.356 185.547 70.769 183.103 70.769 183.103L72.348 183.127Z" fill="#394D8B"/>
<path d="M70.274 186.334C71.0897 186.334 71.751 185.673 71.751 184.857C71.751 184.041 71.0897 183.38 70.274 183.38C69.4583 183.38 68.797 184.041 68.797 184.857C68.797 185.673 69.4583 186.334 70.274 186.334Z" fill="#F9DAD2"/>
<path d="M70.207 183.321L79.74 182.961C79.58 177.398 74.069 178.021 74.069 178.021C74.069 178.021 68.602 178.836 70.207 183.321Z" fill="#394D8B"/>
<path d="M73.132 183.187C75.745 180.581 80.923 178.654 81.503 181.087C81.762 182.171 80.881 183.199 79.766 183.201L73.069 183.213L73.132 183.187Z" fill="#7AC0FC"/>
<path d="M129.977 213.82C129.103 212.2 126.2 211.369 125.229 211.598C124.258 211.827 126.452 212.785 126.452 212.785C126.452 212.785 123.015 211.901 123 214.05C122.988 215.748 127.665 215.492 127.665 215.492L127.859 215.779L129.977 213.82Z" fill="#F9DAD2"/>
<path d="M141.344 218.141C141.344 218.141 139.483 224.397 136.804 224.212C134.927 224.082 131.217 220.015 129.164 217.593C128.287 216.559 127.714 215.826 127.714 215.826L129.635 212.972L135.884 217.2C135.884 217.2 136.407 210.617 137.067 207.786C137.727 204.955 140.929 203.19 140.929 203.19L141.344 218.141Z" fill="#394D8B"/>
<path d="M142.124 223.236L137.628 285.375L142.147 285.818L151.282 230.987L156.334 224.627L142.124 223.236Z" fill="#394D8B"/>
<path d="M157.659 223.223L160.579 285.521L156.039 285.527L147.3 223.257L157.659 223.223Z" fill="#394D8B"/>
<path opacity="0.16" d="M149.696 240.547L149.192 234.948L146.289 233.516L148.352 235.947L149.696 240.547Z" fill="black"/>
<path d="M137.492 281.36L137.294 286.157L133.232 286.775C132.771 286.845 132.356 287.05 132.028 287.347C131.626 287.711 131.354 288.214 131.285 288.781L141.617 289.683L142.937 282.021L137.492 281.36Z" fill="#7AC0FC"/>
<path d="M160.726 281.397L160.747 286.179L164.446 287.197C164.898 287.311 165.292 287.555 165.59 287.882C165.955 288.283 166.275 288.922 166.289 289.493L155.883 289.637L155.242 281.533L160.726 281.397Z" fill="#EFD745"/>
<path d="M151.951 200.04L147.124 200.047L140.233 203.586L141.766 228.278L157.852 228.272L157.902 215.699L158.852 203.512L151.951 200.04Z" fill="#7AC0FC"/>
<path d="M149.018 216.258C148.144 214.638 145.241 213.807 144.27 214.036C143.299 214.265 145.493 215.223 145.493 215.223C145.493 215.223 142.056 214.339 142.041 216.488C142.029 218.186 146.706 217.93 146.706 217.93L146.9 218.217L149.018 216.258Z" fill="#F9DAD2"/>
<path d="M147.048 200.047C147.048 200.047 147.054 200.061 147.063 200.088C147.071 200.102 147.079 200.117 147.086 200.136C147.106 200.176 147.156 200.266 147.231 200.394C148.267 202.176 150.838 202.18 151.879 200.401C151.98 200.228 152.046 200.112 152.061 200.077C152.073 200.054 152.077 200.04 152.077 200.04L151.738 197.691L151.687 197.333L147.625 197.339L147.213 199.27L147.063 199.974L147.048 200.047Z" fill="#F9DAD2"/>
<path opacity="0.22" d="M147.213 199.27C147.573 199.352 147.966 199.401 148.396 199.413C149.97 199.456 151.028 198.726 151.738 197.692L151.687 197.334L147.625 197.34L147.213 199.27Z" fill="black"/>
<path d="M149.634 198.609C143.301 198.435 144.914 190.161 144.914 190.161C144.914 190.161 145.98 187.417 149.74 187.521C153.11 187.613 154.408 190.62 154.408 190.62C154.408 190.62 154.783 198.75 149.634 198.609Z" fill="#F9DAD2"/>
<path d="M152.162 191.154C152.162 191.154 152.367 193.589 152.763 193.588C153.159 193.587 153.749 191.13 153.749 191.13L152.162 191.154Z" fill="#394D8B"/>
<path d="M154.247 194.378C155.067 194.378 155.732 193.713 155.732 192.893C155.732 192.073 155.067 191.408 154.247 191.408C153.427 191.408 152.762 192.073 152.762 192.893C152.762 193.713 153.427 194.378 154.247 194.378Z" fill="#F9DAD2"/>
<path d="M154.314 191.349L144.73 190.987C144.891 185.394 150.431 186.021 150.431 186.021C150.431 186.021 155.928 186.841 154.314 191.349Z" fill="#394D8B"/>
<path d="M151.374 191.214C148.747 188.594 143.542 186.657 142.958 189.103C142.698 190.193 143.583 191.226 144.704 191.228L151.436 191.24L151.374 191.214Z" fill="#7AC0FC"/>
<path d="M158.153 203.52C158.758 203.372 159.377 203.691 159.652 204.297C160.93 207.118 164.483 215.57 163.325 219.999C161.802 225.825 153.728 222.662 146.569 218.168L148.245 215.005L157.385 217.531C157.385 217.532 151.421 205.168 158.153 203.52Z" fill="#394D8B"/>
<defs>
<linearGradient id="paint0_linear" x1="293.222" y1="187.124" x2="293.222" y2="260.82" gradientUnits="userSpaceOnUse">
<stop stop-color="#FFAABB"/>
<stop offset="1" stop-color="#FF748F" stop-opacity="0"/>
</linearGradient>
</defs>
</svg>
